<svg xmlns="http://www.w3.org/2000/svg" viewBox="0 0 800 500" width="800" height="500">
  
  <defs>
    <radialGradient id="iso-fill" cx="55%" cy="50%" r="55%">
      <stop offset="0%" stop-color="#FF6B35" stop-opacity="0.4"></stop>
      <stop offset="35%" stop-color="#F5C451" stop-opacity="0.25"></stop>
      <stop offset="70%" stop-color="#6BE095" stop-opacity="0.18"></stop>
      <stop offset="100%" stop-color="#4DA3FF" stop-opacity="0.0"></stop>
    </radialGradient>
    <clipPath id="putter-shape">
      <path d="M150 200&#xA;               C 150 130, 220 100, 320 100&#xA;               L 580 100&#xA;               C 680 100, 720 150, 720 250&#xA;               C 720 350, 680 400, 580 400&#xA;               L 320 400&#xA;               C 220 400, 150 370, 150 300 Z"></path>
    </clipPath>
  </defs>

  
  <rect width="800" height="500" fill="#0B0F0D"></rect>
  <g fill="rgba(255,255,255,0.06)">
    <pattern id="dg" width="16" height="16" patternUnits="userSpaceOnUse">
      <circle cx="1" cy="1" r="0.8"></circle>
    </pattern>
    <rect width="800" height="500" fill="url(#dg)"></rect>
  </g>

  
  <g clip-path="url(#putter-shape)">
    <rect width="800" height="500" fill="url(#iso-fill)"></rect>

    
    <g fill="none" stroke="#F4F1EA" stroke-width="1" opacity="0.9">
      <ellipse cx="460" cy="250" rx="220" ry="130"></ellipse>
      <ellipse cx="460" cy="250" rx="170" ry="100" opacity="0.85"></ellipse>
      <ellipse cx="460" cy="250" rx="120" ry="72" opacity="0.7"></ellipse>
      <ellipse cx="460" cy="250" rx="75" ry="46" opacity="0.55"></ellipse>
      <ellipse cx="460" cy="250" rx="38" ry="24" opacity="0.4"></ellipse>
    </g>
  </g>

  
  <path d="M150 200&#xA;           C 150 130, 220 100, 320 100&#xA;           L 580 100&#xA;           C 680 100, 720 150, 720 250&#xA;           C 720 350, 680 400, 580 400&#xA;           L 320 400&#xA;           C 220 400, 150 370, 150 300 Z" fill="none" stroke="#F4F1EA" stroke-width="1.5"></path>

  
  <g stroke="#6BE095" stroke-width="1.25" fill="none">
    <circle cx="460" cy="250" r="8"></circle>
    <line x1="448" y1="250" x2="472" y2="250"></line>
    <line x1="460" y1="238" x2="460" y2="262"></line>
  </g>
  <circle cx="460" cy="250" r="1.6" fill="#6BE095"></circle>

  
  <g font-family="IBM Plex Mono, monospace" font-size="11" fill="#C4C8C5">
    <text x="468" y="244">CoM</text>
    <text x="468" y="258" fill="#8A918D">x 86.4 mm</text>
    <text x="468" y="270" fill="#8A918D">y 12.1 mm</text>
  </g>

  
  <g stroke="#5A625F" stroke-width="0.75" font-family="IBM Plex Mono, monospace" font-size="9" fill="#5A625F">
    <line x1="60" y1="450" x2="740" y2="450"></line>
    <line x1="60" y1="60" x2="60" y2="450"></line>
    <g>
      <line x1="150" y1="447" x2="150" y2="453"></line><text x="146" y="466">0</text>
      <line x1="300" y1="447" x2="300" y2="453"></line><text x="290" y="466">30</text>
      <line x1="450" y1="447" x2="450" y2="453"></line><text x="440" y="466">60</text>
      <line x1="600" y1="447" x2="600" y2="453"></line><text x="590" y="466">90</text>
      <line x1="720" y1="447" x2="720" y2="453"></line><text x="708" y="466">120 mm</text>
    </g>
  </g>

  
  <g font-family="IBM Plex Mono, monospace" font-size="10" fill="#8A918D">
    <text x="60" y="40" letter-spacing="2" font-weight="500">FIG. 03 — MASS DISTRIBUTION, SOLE PLANE</text>
    <text x="60" y="55">Iso-density contours · Δ = 0.4 g·cm⁻²</text>
  </g>
</svg>