<svg xmlns="http://www.w3.org/2000/svg" viewBox="0 0 800 500" width="800" height="500">
  
  <rect width="800" height="500" fill="#0B0F0D"></rect>

  
  <pattern id="dgw" width="16" height="16" patternUnits="userSpaceOnUse">
    <circle cx="1" cy="1" r="0.8" fill="rgba(255,255,255,0.06)"></circle>
  </pattern>
  <rect width="800" height="500" fill="url(#dgw)"></rect>

  
  <g stroke="#6BE095" stroke-width="1" fill="none" opacity="0.85">
    
    <path d="M170 230 C 170 180, 240 160, 320 160 L 560 160 C 660 160, 700 195, 700 250 C 700 305, 660 340, 560 340 L 320 340 C 240 340, 170 320, 170 270 Z"></path>
    
    <path d="M180 260 C 180 215, 250 200, 325 200 L 560 200 C 650 200, 685 230, 685 275 C 685 320, 650 350, 560 350 L 325 350 C 250 350, 180 335, 180 300 Z" opacity="0.7"></path>
  </g>

  
  <g stroke="#3DCB72" stroke-width="0.6" fill="none" opacity="0.5">
    <path d="M180 200 C 250 175, 350 165, 460 165 C 570 165, 660 180, 690 215"></path>
    <path d="M180 230 C 250 210, 350 200, 460 200 C 570 200, 660 215, 690 245"></path>
    <path d="M180 260 C 250 245, 350 235, 460 235 C 570 235, 660 250, 690 275"></path>
    <path d="M180 290 C 250 280, 350 270, 460 270 C 570 270, 660 285, 690 305"></path>
    <path d="M180 320 C 250 315, 350 305, 460 305 C 570 305, 660 320, 690 335"></path>
  </g>

  
  <g stroke="#3DCB72" stroke-width="0.6" fill="none" opacity="0.45">
    <path d="M230 165 C 230 200, 232 270, 235 345"></path>
    <path d="M300 160 C 300 195, 302 275, 305 350"></path>
    <path d="M380 158 C 380 195, 382 275, 385 352"></path>
    <path d="M460 158 C 460 195, 462 275, 465 352"></path>
    <path d="M540 158 C 540 195, 542 275, 545 352"></path>
    <path d="M620 160 C 620 197, 622 275, 625 350"></path>
  </g>

  
  <g stroke="#F4F1EA" stroke-width="1.25" fill="none">
    <line x1="190" y1="245" x2="240" y2="195"></line>
    <line x1="170" y1="225" x2="170" y2="275"></line>
  </g>

  
  <g stroke="#5A625F" stroke-width="0.75" font-family="IBM Plex Mono, monospace" font-size="9" fill="#8A918D">
    <line x1="60" y1="420" x2="120" y2="420"></line>
    <line x1="60" y1="420" x2="60" y2="360"></line>
    <line x1="60" y1="420" x2="95" y2="445"></line>
    <text x="124" y="423">x</text>
    <text x="55" y="356">y</text>
    <text x="98" y="450">z</text>
  </g>

  
  <g font-family="IBM Plex Mono, monospace" font-size="10" fill="#8A918D">
    <text x="60" y="40" letter-spacing="2" font-weight="500" fill="#C4C8C5">FIG. 07 — HEAD MESH, ISO PROJECTION</text>
    <text x="60" y="55">Vertices 14,228 · faces 28,401 · Ti-6Al-4V</text>
  </g>

  
  <g fill="#6BE095">
    <circle cx="380" cy="200" r="1.5"></circle>
    <circle cx="460" cy="200" r="1.5"></circle>
    <circle cx="540" cy="200" r="1.5"></circle>
    <circle cx="380" cy="270" r="1.5"></circle>
    <circle cx="460" cy="270" r="1.5"></circle>
    <circle cx="540" cy="270" r="1.5"></circle>
  </g>
</svg>